<?xml version="1.0"?><svg width="216" height="383" xmlns="http://www.w3.org/2000/svg" xmlns:xlink="http://www.w3.org/1999/xlink">
 <!-- Created with SVG-edit - http://svg-edit.googlecode.com/ -->
 <defs>
  <symbol id="svg_1" xmlns:xlink="http://www.w3.org/1999/xlink" width="412" viewBox="0 0 412 523" height="523">
   <path d="m257.873993,274.394012c79.165985,-8.333008 65.868988,-131.132004 2.083008,-164.582993c-42.259003,-22.162003 -99.311005,-21.194 -137.500008,-6.25c-72.436996,28.345001 -91.666,64.582993 -102.083,135.417007s24.486008,258.203979 108.333008,279.165955c75,18.75 103.944,-17.606995 95.833008,-52.083008c-8.333008,-35.416992 -49.408005,-81.294983 -52.083008,-112.5c-6.25,-72.916962 85.416992,-79.166962 85.416992,-79.166962z"/>
   <path d="m398.934998,101.503998c-21.207001,30.800003 -61.446014,39.899002 -89.876007,20.323997c-28.431,-19.574997 -34.286987,-60.411999 -13.079987,-91.211996s61.445007,-39.897999 89.876007,-20.323c28.428986,19.575001 34.28598,60.412003 13.079987,91.210999z"/>
   <path d="m235.453995,82.105003c-18.149002,3.089996 -35.287994,-8.654999 -38.281998,-26.236c-2.99501,-17.580997 8.591003,-44.006001 26.738998,-47.096001c18.147995,-3.092 35.28801,8.654999 38.281998,26.236s-8.591995,44.004997 -26.738998,47.096001z"/>
   <path d="m176.598999,69.410004c-10.276001,14.576004 -25.334,17.380997 -40.380005,6.774002c-15.045998,-10.607002 -18.584991,-40.858006 -8.308998,-55.435003c10.276009,-14.574999 25.333,-17.379999 40.379997,-6.773c15.046005,10.606997 18.585007,40.857997 8.309006,55.434001z"/>
   <path d="m113.750999,80.360001c-3.156998,15.209 -18.958,24.790001 -35.293999,21.399002s-29.616001,-26.455002 -26.459,-41.664001s18.958,-24.790001 35.292999,-21.399002s29.616997,26.455002 26.459999,41.664001z"/>
   <path d="m47.389,102.138c9.291,13.857002 7.525002,31.324005 -3.943001,39.013c-11.468,7.688004 -28.296,2.688004 -37.587001,-11.169998c-9.29,-13.857002 -7.524,-31.324005 3.944,-39.012001s28.296001,-2.688004 37.586002,11.168999z"/>
  </symbol>
 </defs>
 <g>
  <title>Layer 1</title>
  <use fill="#00007f" x="0" y="0" transform="matrix(0.522698, 0, 0, 0.727654, 1.16804, 1.99639)" xlink:href="#svg_1" id="svg_2"/>
  <text transform="matrix(1.56996, 0, 0, 2.87097, 32.9178, -220.532)" xml:space="preserve" text-anchor="middle" font-family="Arial" font-size="24" id="svg_3" y="139" x="36" stroke-width="0" fill="#ffffff">1st Step</text>
 </g>
</svg>